# xmcd CD database file
#
# Track frame offsets:
#	150
#	21899
#	40814
#	58461
#	79382
#	94997
#	110911
#	132948
#	152858
#	175403
#	195233
#	211692
#	229922
#	250882
#
# Disc length: 3715 seconds
#
# Revision: 0
# Processed by: cddbd v1.4PL0 Copyright (c) Steve Scherf et al.
# Submitted via: CDex 1.50beta9
#
DISCID=c70e810e
DTITLE=Claude Tissendier Tentet - Hampton Vibrations
DYEAR=2002
DGENRE=Jazz
TTITLE0=Till Tom Special
TTITLE1=Jivin' the Vibes
TTITLE2=One Sweet Letter from you
TTITLE3=I'm in the Mood for Swing
TTITLE4=Shoe Shiner's Drag
TTITLE5=Four or Five Times
TTITLE6=Star Dust
TTITLE7=Memories of Hamp
TTITLE8=Anytime at All
TTITLE9=Air Mail Special
TTITLE10=Midnight Sun
TTITLE11=The Mood that I'm in
TTITLE12=Tiss Boogie
TTITLE13=Flying Home
EXTD=YEAR: 2002
EXTT0=
EXTT1=
EXTT2=
EXTT3=
EXTT4=
EXTT5=
EXTT6=
EXTT7=
EXTT8=
EXTT9=
EXTT10=
EXTT11=
EXTT12=
EXTT13=
PLAYORDER=
